<?xml version="1.0" encoding="utf-8"?>
<!-- Generator: Adobe Illustrator 28.4.1, SVG Export Plug-In . SVG Version: 6.00 Build 0)  -->
<svg version="1.1" id="Ebene_1" xmlns="http://www.w3.org/2000/svg" xmlns:xlink="http://www.w3.org/1999/xlink" x="0px" y="0px"
	 viewBox="0 0 1006.7 925" style="enable-background:new 0 0 1006.7 925;" xml:space="preserve">
<style type="text/css">
	.st0{fill:#EB5254;}
	.st1{fill:#D70E16;}
	.st2{fill:#1871AB;}
	.st3{fill:#0E4061;}
</style>
<g>
	<path class="st0" d="M3.7,486.5c2.2-1.6,4.6-3.1,6.7-4.9c42.3-36.9,91.2-59.9,146.4-69.7c7.9-1.4,8.6-1.6,11.1,5.9
		c5.6,17.2,11.4,34.4,15.2,51.9c4,18.3,6,36.9,8.3,55.5c3.6,28.5,16.6,132.1,20.8,155.2c4.9,26.9,10.4,53.7,16.1,80.4
		c3.9,18.3,7.4,36.8,13.3,54.6c8.1,24.6,23.4,43.8,46.1,56.5c14.4,8,21.7,14.2,43.7,13.8c11.2-0.7,26.3-2.7,37.1-7.1
		c34.6-14,58.9-37.4,68-74.6c6.2-25.3,33-131.2,39.9-158.9c5-20,9.8-39.9,14.8-59.9c1.7-7,5.1-9.6,11.9-9.7c7,0,10.5,2.7,12.3,9.9
		c7.3,29.5,14.5,59,21.9,88.4c6.1,24.3,28.1,114.6,34.3,135.1c11.5,37.8,37.1,61.9,75.3,71.9c7.4,1.9,15.4,2.4,23.2,3.2
		c43.3,4.1,85-34.1,96.4-72.1c5.1-17,8.4-34.5,12.3-51.8c3.3-14.2,6.8-28.4,9.4-42.8c4.6-25.3,8.8-50.6,12.7-76
		c3.2-20.5,6-41,8.7-61.6c1.4-11,7.7-72,10.2-91.5c3.1-25,10.1-49,19.2-72.5c1.6-4.1,3.2-5.2,8-4.5c49.7,7.9,94.4,27.2,134.4,57.5
		c6.2,4.7,20.8,16.6,22.2,17.5c0,123,0,246,0,369c-0.4,0.2-30.7,50.4-59.4,62.1c-3.5,1.4-7.1,2.6-10.6,3.9c-286.7,0-573.3,0-860,0
		c-2.9-1-5.9-1.9-8.8-3c-24.7-9.6-43.3-26.1-55.1-50c-2.1-4.3-4.1-8.7-6.1-13C3.7,732.5,3.7,609.5,3.7,486.5z"/>
	<path class="st1" d="M329.4,10.6c33.2-2,62.5,12.1,90.1,28.7c13.8,8.3,27.4,17,41.7,24.5c28.2,14.9,57.1,14.3,85.3,0.3
		c12-6,22.9-14,34.2-21.3c22.2-14.3,45.6-25.9,71.8-29.8c24.4-3.6,48.6-2.3,72.3,6.6c47.9,18,84.4,49.2,110.4,92.9
		c15.6,26.3,24,55.1,26.7,85.5c3.2,35.7-1.5,70.3-16.2,103.3c-7.1,15.9-16.2,30.5-26.2,44.6c-25.7,36-41,76.4-48.4,119.7
		c-4.6,27-7.3,54.3-10.3,81.6c-5.1,47-10.8,93.8-20,140.2c-7.1,35.7-15,71.3-23.3,106.7c-8,34.1-49.9,48.9-77.5,27.8
		c-9.5-7.3-16.1-16.6-19.1-28.4c-15.4-61.9-30.8-123.7-46.4-185.6c-3.8-15-6.8-30.2-12-44.7c-10.8-30.1-46.6-46.7-77.4-37.1
		c-24.9,7.8-39.2,24.9-45.3,49.7c-12.9,52.5-26.1,105-39.1,157.5c-5,20-9.8,40.1-15.1,60.1c-5.1,19.5-17.8,32.5-37.3,37
		c-27.7,6.4-53.2-10.6-59-36.2c-10.1-44.7-20.4-89.6-27.9-134.8c-7.6-45.7-12.5-91.9-17.7-137.9c-4.3-37.9-9.8-75.5-22.9-111.6
		c-9.4-25.9-22.7-49.5-38.8-71.7c-19.6-27.1-32.4-57.2-36-90.3c-4-36.7-1.8-73.2,12.3-108.1c9.4-23.3,22.5-44.5,39.4-63.1
		c17.8-19.7,38.5-35.8,62.3-47.6c15.9-7.8,32.3-14.2,49.9-16.7C316.4,11.4,322.7,10.6,329.4,10.6z M577.8,138.1
		c1.7,1.1,4.5,2.8,7.3,4.5c10,6.1,17.8,14.3,20.5,25.9c4,17.1-2.1,32.5-17.2,42.4c-14.1,9.2-28.8,8.5-43.2-0.4
		c-59.2-36.5-118.3-72.9-177.6-109.2c-15.4-9.5-31.9-15.1-50.4-10.2c-20.5,5.5-38.7,15.5-54,30.1c-27,25.8-39.8,58.2-40.4,95.2
		c-0.5,29.2,8,55.8,25.3,79.3c18.5,25.2,33.4,52.4,44.7,81.5c16.2,41.9,23.8,85.7,28.7,130.1c5.1,45.6,11.1,91,16.7,136.6
		c0.2,1.6,0.7,3.2,1.1,4.8c6.8-23.9,12.8-47.6,18.6-71.3c4.7-19.1,8.7-38.5,18.2-55.8c18-32.7,44.1-56.5,79.6-69
		c35.6-12.5,71.3-11.5,105.5,4.2c43.7,20,71,54.3,82.5,101.1c7.2,29.2,14.5,58.4,21.8,87.6c0.3,1.1,0.8,2.2,1.2,3.3
		c0.6,0,1.2,0,1.9-0.1c5-41.6,10.3-83.1,14.9-124.7c3.1-28.6,6-57.2,12.2-85.4c10-45.8,26.5-88.8,52.5-127.9
		c7.3-11.1,15.4-21.8,21.6-33.5c12.3-23.3,16.1-48.4,13.3-74.5c-3.1-28.3-14.1-53.2-33-74.5c-10.6-12-23.4-21.3-37.7-28.3
		c-11.2-5.5-22.9-10.2-35.6-10.4c-16.4-0.2-31,5.9-44.6,14.2C613.8,114.8,595.9,126.6,577.8,138.1z"/>
</g>
</svg>
